<svg width="51" height="43" viewBox="0 0 51 43" fill="none" xmlns="http://www.w3.org/2000/svg">
<path d="M42 6.63334C41.5 6.13334 41 5.63334 40.5 5.13334C39 3.53334 37.4 1.93334 35.4 0.93334C33.1 -0.26666 30.6 0.033331 28.1 0.033331C24.3 0.033331 14.8 0.033331 9.2 0.033331L13 5.13334C19.9 5.13334 30.7 5.13334 35.7 5.13334C37.8 5.13334 39.6 5.53334 41.3 6.63334C41.6 6.73334 41.9 6.73334 42 6.63334Z" fill="#201B21"/>
<path d="M46.2 14.8333C45.7 14.3333 45.2 13.8333 44.7 13.3333C43.2 11.7333 41.6 10.1333 39.6 9.13334C37.3 7.93334 34.8 8.23335 32.3 8.23335C29 8.23335 21.1 8.23335 15.5 8.23335L19.3 13.3333C26.1 13.3333 35.4 13.3333 40 13.3333C42.1 13.3333 43.9 13.7333 45.6 14.8333C45.8 14.9333 46 14.9333 46.2 14.8333Z" fill="#201B21"/>
<path d="M50.9 22.8334C50.4 22.3334 49.9 21.8334 49.4 21.3334C47.9 19.7334 46.3 18.1333 44.3 17.1333C42 15.9333 39.5 16.2333 37 16.2333C33.9 16.2333 27.1 16.2333 21.6 16.2333L25.4 21.3334C32 21.3334 40.4 21.3334 44.6 21.3334C46.7 21.3334 48.5 21.7334 50.2 22.8334C50.5 22.9334 50.7 23.0334 50.9 22.8334Z" fill="#201B21"/>
<path d="M8.8 36.3333C9.3 36.8333 9.8 37.3333 10.3 37.8333C11.8 39.4333 13.4 41.0333 15.4 42.0333C17.7 43.2333 20.2 42.9333 22.7 42.9333H41.6L37.8 37.8333C30.9 37.8333 20.1 37.8333 15.1 37.8333C13 37.8333 11.2 37.4333 9.5 36.3333C9.2 36.2333 9 36.2333 8.8 36.3333Z" fill="#201B21"/>
<path d="M4.60001 28.1333C5.10001 28.6333 5.60001 29.1333 6.10001 29.6333C7.60001 31.2333 9.2 32.8333 11.2 33.8333C13.5 35.0333 16 34.7333 18.5 34.7333H35.3L31.5 29.6333C24.7 29.6333 15.4 29.6333 10.8 29.6333C8.7 29.6333 6.9 29.2333 5.2 28.1333C5 28.0333 4.80001 28.0333 4.60001 28.1333Z" fill="#201B21"/>
<path d="M0 20.0333C0.5 20.5333 1 21.0333 1.5 21.5333C3 23.1333 4.60001 24.7333 6.60001 25.7333C8.90001 26.9333 11.4 26.6333 13.9 26.6333H29.3L25.5 21.5333C18.9 21.5333 10.5 21.5333 6.3 21.5333C4.2 21.5333 2.4 21.1333 0.699997 20.0333C0.399997 19.9333 0.2 19.9333 0 20.0333Z" fill="#201B21"/>
</svg>
